<?xml version="1.0" ?><svg id="Livello_1" style="enable-background:new 0 0 100 100;" version="1.1" viewBox="0 0 100 100" xml:space="preserve" xmlns="http://www.w3.org/2000/svg" xmlns:xlink="http://www.w3.org/1999/xlink"><path d="M59.4,72.1H40.7c-4.1,0-7-2.6-7.1-6.1l-2.5-27c0-0.1,0-0.1,0-0.2c0-1.5,1.2-2.7,2.9-2.7h32.3c1.5,0,2.8,1.3,2.8,2.9  c0,0.1,0,0.1,0,0.2l-2.5,26.7C66.4,69.4,63.4,72.1,59.4,72.1z M35.1,40.1l2.4,25.6c0,0.1,0,0.1,0,0.2c0,1.5,1.6,2.2,3.1,2.2h18.7  c1.5,0,3.1-0.7,3.1-2.3c0-0.1,0-0.1,0-0.2l2.4-25.5H35.1z"/><path d="M58.4,40.1c-1.1,0-2-0.9-2-2v-2.6c0-3.8-2.6-6.7-6-6.7s-6,2.9-6,6.7v2.6c0,1.1-0.9,2-2,2s-2-0.9-2-2v-2.6  c0-6,4.4-10.7,10-10.7s10,4.7,10,10.7v2.6C60.4,39.2,59.5,40.1,58.4,40.1z"/></svg>